<?xml version="1.0" encoding="utf-8"?>
<svg width="854px" height="223px" viewBox="0 0 854 223" version="1.1" xmlns:xlink="http://www.w3.org/1999/xlink" xmlns="http://www.w3.org/2000/svg">
  <desc>Created with Lunacy</desc>
  <defs>
    <path d="M0 0L938 0L938 927.523L0 927.523L0 0Z" id="path_1" />
    <path d="M0 0L870.726 0L870.726 861L0 861L0 0Z" id="path_2" />
    <rect width="854" height="222.999985" id="slice_1" />
    <clipPath id="clip_1">
      <use xlink:href="#slice_1" clip-rule="evenodd" />
    </clipPath>
    <clipPath id="mask_1">
      <use xlink:href="#path_1" />
    </clipPath>
    <clipPath id="mask_2">
      <use xlink:href="#path_2" />
    </clipPath>
  </defs>
  <g id="Slice-4" clip-path="url(#clip_1)">
    <use xlink:href="#slice_1" stroke="none" fill="none" />
    <g id="grass-03-2" transform="translate(-83.57285 -361.7615)">
      <path d="M0 0L938 0L938 927.523L0 927.523L0 0Z" id="Background" fill="none" stroke="none" />
      <g clip-path="url(#mask_1)">
        <path d="M0.285309 42.8706C0.285309 42.8706 10.6424 29.9161 28.2324 1.76184C22.8399 16.9962 39.3599 42.2488 49.2034 56.7232C66.5366 28.5343 53.4832 39.6578 68.5053 10.6054C66.6027 28.5066 70.6663 46.4928 80.2748 62.6995C98.2692 44.5687 110.073 22.953 114.513 0C125.641 5.04359 133.344 13.8181 140.492 22.3162C159.049 44.6078 175.997 67.7456 191.25 91.6141C216.214 69.9457 231.776 42.3145 235.589 12.8853C241.623 11.9526 246.973 16.0289 250.739 19.9671C266.543 36.5017 275.738 56.5269 277.103 77.3812C284.567 66.5817 296.934 58.5435 311.598 54.9613C321.099 52.6813 331.628 52.2668 339.716 47.6723C352.085 40.7633 354.781 26.2543 366.251 18.3089L409.649 59.3831C410.795 60.702 412.405 61.7128 414.271 62.2849C416.952 62.5252 419.616 61.7316 421.461 60.1431C431.048 53.6141 429.036 51.1268 438.58 44.4596C447.396 38.2069 457.376 33.4826 463.967 22.5318C464.823 21.15 463.103 48.605 464.088 51.1613L464.088 211.071L0.285309 211.071C0.285309 211.071 -0.356636 51.3341 0.285309 42.8706L0.285309 42.8706Z" transform="translate(473.1057 372.7297)" id="Shape" fill="#C6D5A1" stroke="none" />
        <path d="M468.37 18.3424C468.37 18.3424 397.793 18.7303 380.073 1.09924C385.475 10.6045 368.792 26.3604 358.852 35.3915C341.348 17.8035 354.53 24.7439 339.36 6.61703C341.281 17.7862 337.178 29.0084 327.475 39.1203C309.303 27.8079 297.383 14.3211 292.899 0C281.662 3.14688 273.882 8.62156 266.665 13.9238C247.941 27.8372 230.827 42.273 215.407 57.1605C190.209 43.6899 174.452 26.5068 170.501 8.19046C164.407 7.60849 159.005 10.1519 155.201 12.5012C139.261 22.823 129.978 35.3144 128.578 48.3238C121.041 41.5856 108.551 36.5703 93.7432 34.3353C84.1485 32.9128 73.5165 32.6541 65.348 29.7874C52.8575 25.4767 40.9289 9.56987 40.9289 9.56987C40.9289 9.56987 38.2493 35.7794 24.0733 31.4902C14.5218 28.602 0 12.7167 0 12.7167L0.259307 86L468.716 86L468.37 18.3424Z" transform="translate(468.8478 498.2789)" id="Shape" fill="#5C8553" stroke="none" />
      </g>
    </g>
    <g id="grass-03" transform="translate(-369.7256 -329)">
      <path d="M0 0L870.726 0L870.726 861L0 861L0 0Z" id="Background" fill="none" stroke="none" />
      <g clip-path="url(#mask_2)">
        <path d="M0.259684 38.1949C0.259684 38.1949 9.68634 26.6533 25.6961 1.56968C20.788 15.1425 35.8239 37.6409 44.7831 50.5366C60.5591 25.4222 48.6784 35.3325 62.3509 9.4487C60.6192 25.3975 64.3177 41.422 73.0631 55.8612C89.4409 39.7078 100.184 20.4496 104.226 0C114.353 4.49351 121.365 12.311 127.87 19.8822C144.761 39.7426 160.186 60.3569 174.069 81.6222C196.79 62.317 210.953 37.6994 214.424 11.48C219.916 10.649 224.786 14.2807 228.213 17.7894C242.597 32.5206 250.967 50.3618 252.209 68.9416C259.002 59.3199 270.258 52.1584 283.605 48.9669C292.252 46.9356 301.835 46.5663 309.197 42.4729C320.454 36.3174 322.909 23.3909 333.348 16.312L372.846 52.9064C373.89 54.0815 375.355 54.9821 377.053 55.4917C379.493 55.7059 381.919 54.9988 383.597 53.5836C392.323 47.7666 390.492 45.5506 399.179 39.6106C407.203 34.0399 416.824 16.5275 422.823 6.77103C423.602 5.53993 421.499 43.3039 422.395 45.5814L422.395 188.05L0.259684 188.05C0.259684 188.05 -0.32459 45.7353 0.259684 38.1949L0.259684 38.1949Z" transform="translate(366.7256 343)" id="Shape" fill="#C6D5A1" stroke="none" />
        <path d="M426.967 35.1352C426.967 35.1352 411.329 19.5163 387.54 13.662C376.329 50.8165 329.468 10.9791 321.848 1.19391C326.395 11.5178 312.356 28.6307 303.99 38.4396C289.26 19.3369 300.353 26.875 287.587 7.18693C289.204 19.318 285.75 31.5067 277.585 42.4896C262.292 30.2029 252.261 15.5546 248.488 0C239.031 3.41791 232.484 9.3641 226.41 15.123C210.653 30.2347 196.251 45.9138 183.274 62.0835C162.069 47.4528 148.809 28.7897 145.484 8.89587C140.356 8.26378 135.81 11.0262 132.609 13.5779C119.195 24.7887 111.382 38.3558 110.204 52.4857C103.861 45.1672 93.3509 39.72 80.8892 37.2925C72.8148 35.7474 63.8675 35.4665 56.9933 32.3529C46.482 27.6709 36.4436 10.3941 36.4436 10.3941C36.4436 10.3941 34.1885 38.861 22.2588 34.2023C14.2207 31.0653 0 22.7515 0 22.7515L2.21822 93.4068L430 95L426.967 35.1352Z" transform="translate(363.7256 458)" id="Shape" fill="#5C8553" stroke="none" />
      </g>
    </g>
  </g>
</svg>